<?xml version="1.0" standalone="no"?>
<!DOCTYPE svg PUBLIC "-//W3C//DTD SVG 20010904//EN"
 "http://www.w3.org/TR/2001/REC-SVG-20010904/DTD/svg10.dtd">
<svg version="1.0" xmlns="http://www.w3.org/2000/svg"
 width="512.000000pt" height="512.000000pt" viewBox="0 0 512.000000 512.000000"
 preserveAspectRatio="xMidYMid meet">
<metadata>
Created by potrace 1.14, written by Peter Selinger 2001-2017
</metadata>
<g transform="translate(0.000000,512.000000) scale(0.100000,-0.100000)"
fill="#000000" stroke="none">
<path d="M2498 5092 l-33 -30 0 -210 c0 -208 0 -211 24 -236 30 -31 73 -42
112 -26 53 22 59 50 60 252 0 101 -2 190 -4 198 -13 50 -36 69 -93 77 -25 3
-39 -2 -66 -25z"/>
<path d="M1745 4746 c-59 -26 -79 -86 -47 -139 24 -38 187 -198 220 -216 46
-24 113 5 133 58 18 47 -5 86 -116 196 -59 58 -113 105 -120 105 -8 0 -19 2
-27 5 -7 2 -27 -2 -43 -9z"/>
<path d="M3312 4753 c-33 -7 -238 -216 -245 -250 -6 -31 12 -81 34 -99 26 -20
68 -25 101 -11 41 18 225 206 233 240 10 40 -19 96 -59 112 -20 8 -37 14 -38
14 -2 -1 -13 -4 -26 -6z"/>
<path d="M2518 4439 c-34 -13 -60 -67 -52 -108 7 -34 55 -81 83 -81 60 0 111
44 111 95 0 75 -69 121 -142 94z"/>
<path d="M2457 4055 c-1 -2 -31 -6 -67 -9 -187 -20 -392 -87 -563 -185 -285
-162 -517 -428 -637 -729 -18 -45 -34 -82 -35 -82 -1 0 -15 11 -31 25 -66 57
-165 92 -262 93 -119 0 -212 -39 -300 -127 -95 -95 -128 -197 -120 -371 5 -89
10 -115 36 -172 l30 -66 -45 -12 c-87 -21 -205 -90 -266 -155 -94 -99 -146
-191 -177 -309 -25 -97 -27 -371 -3 -406 30 -43 61 -47 355 -46 263 1 278 2
304 22 15 11 32 33 38 50 l11 29 195 -1 c107 -1 199 -2 204 -3 5 0 -212 -223
-482 -494 -271 -270 -503 -508 -516 -527 -51 -78 -72 -182 -55 -274 22 -121
116 -234 229 -276 99 -38 203 -35 294 8 62 29 99 62 403 365 184 182 341 344
349 359 18 34 18 56 0 91 -15 27 -14 28 47 87 40 40 66 58 77 54 63 -25 115
-13 142 34 17 28 15 86 -2 107 -8 9 12 36 75 99 l86 87 132 -65 c175 -85 344
-135 517 -151 68 -6 246 -7 280 -1 14 3 48 7 75 11 194 23 420 110 600 230 81
54 230 179 272 229 13 14 26 26 30 27 5 0 50 2 102 3 l94 2 13 -33 c30 -71 7
-68 607 -68 393 0 547 3 568 12 50 21 60 57 58 220 -1 161 -14 232 -60 332
-81 174 -236 310 -403 352 l-45 11 18 37 c36 70 50 142 49 246 -1 154 -33 239
-123 329 -87 89 -186 127 -313 122 -90 -4 -160 -28 -231 -80 l-49 -37 -21 57
c-44 117 -150 305 -213 379 -9 11 -26 31 -38 45 -195 231 -472 405 -765 480
-86 22 -101 25 -185 36 -51 6 -277 13 -283 9z"/>
</g>
</svg>
