<?xml version="1.0" standalone="no"?>
<!DOCTYPE svg PUBLIC "-//W3C//DTD SVG 20010904//EN"
 "http://www.w3.org/TR/2001/REC-SVG-20010904/DTD/svg10.dtd">
<svg version="1.0" xmlns="http://www.w3.org/2000/svg"
 width="512.000000pt" height="512.000000pt" viewBox="0 0 512.000000 512.000000"
 preserveAspectRatio="xMidYMid meet">
<metadata>
Created by potrace 1.14, written by Peter Selinger 2001-2017
</metadata>
<g transform="translate(0.000000,512.000000) scale(0.100000,-0.100000)"
fill="#000000" stroke="none">
<path d="M2498 5092 l-33 -30 0 -210 c0 -208 0 -211 24 -236 30 -31 73 -42
112 -26 53 22 60 50 60 253 0 100 -2 189 -4 197 -13 50 -36 69 -93 77 -25 3
-39 -2 -66 -25z"/>
<path d="M1745 4746 c-52 -22 -74 -72 -55 -122 13 -32 171 -197 217 -225 54
-34 121 -10 144 50 18 47 -5 86 -116 196 -59 58 -113 105 -120 105 -8 0 -19 2
-27 5 -7 2 -27 -2 -43 -9z"/>
<path d="M3312 4753 c-27 -5 -241 -217 -243 -241 -8 -92 50 -147 127 -121 39
12 230 206 239 241 10 41 -19 97 -59 113 -20 8 -37 14 -38 14 -2 -1 -13 -4
-26 -6z"/>
<path d="M2518 4439 c-34 -13 -60 -67 -52 -108 8 -38 56 -81 90 -81 53 0 103
45 104 93 0 77 -68 123 -142 96z"/>
<path d="M2457 4055 c-1 -2 -31 -6 -67 -9 -524 -54 -1002 -418 -1200 -914 -18
-45 -34 -82 -35 -82 -1 0 -15 11 -31 25 -120 104 -313 122 -467 43 -55 -28
-146 -123 -173 -182 -36 -77 -47 -149 -42 -266 5 -89 10 -115 36 -172 l30 -66
-45 -12 c-87 -21 -205 -90 -266 -155 -147 -154 -194 -281 -196 -526 -2 -159 4
-189 45 -216 25 -16 57 -18 303 -19 152 0 288 3 303 8 86 29 85 163 -3 185
-16 5 -124 8 -240 8 l-210 0 2 75 c5 186 78 322 218 403 100 59 139 65 433 66
l264 2 18 -63 c27 -101 65 -195 123 -307 l54 -104 -581 -581 c-319 -320 -591
-597 -604 -616 -71 -107 -80 -246 -25 -367 12 -26 47 -72 78 -103 75 -75 144
-103 261 -104 76 -1 92 3 155 32 63 30 99 62 403 365 183 183 340 344 348 359
18 35 18 52 -2 94 -18 38 -66 59 -109 48 -18 -4 -144 -123 -359 -337 -182
-181 -340 -336 -351 -343 -31 -21 -89 -26 -136 -14 -102 28 -155 150 -108 244
6 11 268 278 581 592 l570 572 87 -87 c237 -238 571 -395 901 -426 68 -6 246
-7 280 -1 14 3 43 7 65 10 245 32 477 128 685 284 252 188 455 487 535 785
l18 68 264 -1 c276 -2 332 -9 413 -51 92 -48 184 -157 217 -257 8 -26 17 -90
20 -142 l5 -95 -463 0 c-255 1 -480 -2 -499 -7 -48 -10 -79 -50 -76 -99 4 -45
20 -68 61 -84 44 -17 1091 -14 1122 3 45 25 54 61 52 219 -1 161 -14 232 -60
332 -81 174 -236 310 -403 352 l-45 11 18 37 c38 73 53 147 50 249 -4 155 -36
238 -126 328 -88 88 -184 125 -311 120 -90 -4 -160 -28 -230 -80 l-49 -36 -18
48 c-43 115 -155 314 -217 387 -9 11 -26 31 -38 45 -195 231 -472 405 -765
480 -86 22 -101 25 -185 36 -51 6 -277 13 -283 9z m356 -226 c247 -50 465
-166 643 -344 152 -151 249 -305 317 -505 27 -78 30 -93 52 -223 12 -76 13
-315 1 -367 -3 -13 -8 -42 -12 -64 -20 -138 -139 -403 -232 -518 -155 -191
-295 -302 -497 -395 -188 -86 -326 -113 -550 -108 -167 3 -173 4 -295 35 -485
125 -848 519 -939 1021 -18 96 -22 332 -7 404 49 241 97 362 215 540 60 91
226 257 323 323 125 85 317 171 443 197 168 35 377 37 538 4z m-1871 -878 c51
-22 89 -56 115 -102 26 -48 26 -229 0 -277 -63 -115 -199 -154 -311 -88 -70
41 -99 98 -104 208 -6 125 20 187 103 245 54 37 130 43 197 14z m3404 0 c47
-22 87 -59 111 -104 25 -48 30 -195 9 -251 -69 -181 -311 -194 -403 -23 -26
48 -28 207 -4 262 36 81 116 135 201 135 25 0 63 -9 86 -19z"/>
<path d="M2425 3648 c-353 -42 -692 -288 -838 -608 -73 -159 -98 -269 -102
-441 -6 -314 107 -585 334 -802 172 -164 396 -270 616 -292 72 -7 216 -7 248
0 12 2 40 7 62 10 49 7 147 32 183 47 222 93 370 203 494 368 83 110 162 273
184 380 35 174 40 341 14 473 -77 392 -378 720 -761 830 -131 38 -298 52 -434
35z m345 -218 c300 -77 539 -302 629 -593 29 -95 36 -146 35 -272 0 -128 -20
-227 -67 -335 -33 -75 -103 -190 -116 -190 -4 0 -14 13 -23 28 -25 42 -136
153 -192 193 -28 18 -76 48 -108 64 l-59 31 19 24 c57 73 80 154 80 281 1 225
-101 375 -297 435 -200 60 -423 -56 -496 -260 -18 -48 -23 -84 -23 -167 -1
-121 13 -180 62 -262 l34 -56 -57 -27 c-103 -51 -253 -179 -299 -256 -9 -16
-19 -28 -23 -28 -12 0 -76 103 -108 174 -60 129 -75 205 -74 366 0 128 3 156
27 235 68 227 214 412 414 526 84 48 212 94 292 104 30 4 56 8 57 9 2 2 49 1
105 0 66 -1 134 -10 188 -24z m-124 -536 c84 -40 123 -112 124 -226 0 -91 -20
-150 -64 -192 -106 -98 -262 -72 -329 54 -27 51 -29 61 -25 145 6 119 38 178
121 219 41 20 130 20 173 0z m104 -712 c147 -51 280 -158 340 -271 12 -23 10
-27 -16 -48 -45 -37 -221 -119 -299 -139 -98 -26 -332 -26 -430 -1 -76 20
-253 103 -298 141 -28 22 -28 24 -14 52 21 40 73 100 130 152 148 132 399 181
587 114z"/>
<path d="M1508 1172 c-38 -5 -78 -55 -78 -99 0 -50 45 -93 97 -93 21 0 45 6
54 13 86 67 35 193 -73 179z"/>
</g>
</svg>
